<svg version="1.1" id="Layer_1" xmlns="http://www.w3.org/2000/svg" xmlns:xlink="http://www.w3.org/1999/xlink" x="0px" y="0px"
	 width="100%" viewBox="0 0 144 144" enable-background="new 0 0 144 144" xml:space="preserve">
<path fill="#000000" opacity="1.000000" stroke="none" 
	d="
M94.000000,145.000000 
	C62.693451,145.000000 31.886898,145.000000 1.040174,145.000000 
	C1.040174,97.068504 1.040174,49.136967 1.040174,1.102714 
	C48.889637,1.102714 96.779564,1.102714 144.834747,1.102714 
	C144.834747,48.999531 144.834747,96.999725 144.834747,145.000000 
	C128.137344,145.000000 111.318672,145.000000 94.000000,145.000000 
M99.457245,75.175697 
	C99.457245,75.175697 99.864594,75.191925 99.992615,75.646164 
	C99.992615,75.646164 100.125298,76.099060 99.999901,76.794449 
	C100.724495,78.219330 101.449097,79.644203 102.310760,81.770966 
	C103.173492,84.134277 104.036224,86.497589 105.585121,89.107430 
	C106.673622,91.085159 107.762123,93.062881 108.979111,95.677826 
	C109.615257,96.466850 110.251396,97.255875 110.972092,98.740738 
	C110.429451,103.657478 114.176399,102.714882 117.375412,103.809914 
	C129.240585,104.540573 131.342422,100.297653 131.976334,92.220055 
	C131.350296,90.120255 130.724274,88.020462 130.025330,85.149910 
	C129.382767,84.064072 128.740189,82.978233 128.019547,81.095482 
	C127.367561,79.694092 126.715569,78.292702 125.861122,76.359871 
	C125.518188,75.913773 125.175262,75.467674 124.975731,74.229218 
	C123.926872,71.818321 122.878014,69.407433 121.834297,66.402290 
	C121.238159,65.899399 120.642014,65.396500 119.993904,64.195923 
	C119.608391,63.133476 119.222870,62.071033 118.790527,60.342144 
	C118.139992,59.225662 117.489456,58.109180 116.760887,56.307365 
	C115.780609,54.570354 114.800339,52.833347 113.796837,50.409294 
	C113.223289,49.255531 112.649734,48.101768 112.043526,46.297276 
	C111.408783,45.528316 110.774040,44.759357 110.005455,43.221447 
	C107.525879,33.749371 98.336243,30.050159 91.270882,36.231480 
	C89.820885,38.470417 88.370888,40.709351 86.303032,43.282238 
	C85.595207,45.191891 84.887375,47.101540 83.872986,49.636684 
	C82.970558,51.427452 82.068123,53.218216 80.822556,55.657444 
	C80.281288,56.760235 79.740013,57.863022 78.897125,59.625153 
	C77.895790,60.483227 76.894455,61.341301 75.277740,61.770054 
	C73.183296,57.863659 71.045372,53.979748 69.009621,50.043003 
	C67.639328,47.393116 66.413460,44.668549 65.011368,41.203133 
	C64.748306,40.167431 64.816803,38.807396 64.170448,38.146610 
	C58.251743,32.095749 49.983860,31.463745 43.320301,38.250416 
	C41.941772,41.477215 40.563248,44.704018 39.030285,48.578739 
	C38.746822,49.385067 38.463360,50.191395 37.857086,51.599846 
	C36.643993,54.061024 35.430901,56.522202 33.916447,59.627487 
	C33.588242,60.729557 33.260040,61.831627 32.326736,63.193184 
	C31.926285,64.117668 31.525837,65.042145 30.874844,66.592667 
	C30.552902,67.380493 30.230961,68.168327 29.291182,69.275818 
	C28.252855,71.520065 27.214531,73.764313 25.860216,76.658592 
	C25.224524,78.413002 24.588831,80.167404 23.362711,82.148132 
	C22.289381,84.048302 21.216051,85.948471 19.807730,88.641838 
	C17.768021,95.657654 19.290455,99.323341 23.487658,102.678596 
	C26.489386,105.078186 36.439205,104.399216 39.023338,102.029831 
	C39.023338,102.029831 39.029064,102.097481 39.480537,101.983162 
	C39.480537,101.983162 39.913612,101.811844 40.637657,101.786713 
	C41.363667,99.814644 42.089672,97.842575 43.211250,95.240425 
	C44.414711,92.493652 45.618172,89.746880 47.102524,86.400261 
	C47.453964,85.624077 47.805405,84.847885 48.751347,83.812286 
	C49.521221,81.565163 50.291096,79.318039 51.025249,77.027832 
	C51.025249,77.027832 51.024513,77.083603 51.533695,76.915474 
	C51.720871,76.622208 51.908047,76.328941 52.727909,75.992004 
	C53.203403,75.662872 53.678894,75.333740 54.767971,75.304092 
	C56.153225,77.553757 57.538475,79.803429 59.003284,82.766563 
	C60.396118,86.068123 61.788952,89.369675 63.135509,93.453270 
	C66.136436,102.671547 69.572830,104.576088 78.068237,104.015343 
	C84.984291,103.558846 88.481461,99.531059 88.692062,91.789330 
	C90.720329,88.132858 92.748604,84.476387 94.951065,80.222176 
	C95.849731,78.428185 96.748398,76.634186 97.915291,75.365616 
	C98.286797,75.264984 98.658295,75.164352 99.056778,75.056816 
	C99.056778,75.056816 99.074562,75.035385 99.457245,75.175697 
z"/>
<path fill="#FC017C" opacity="1.000000" stroke="none" 
	d="
M63.181786,92.671234 
	C61.788952,89.369675 60.396118,86.068123 59.393906,82.398300 
	C67.462105,82.985329 72.277809,76.292107 79.281654,75.086990 
	C81.681068,80.220451 83.846764,85.089088 85.712982,90.122345 
	C82.919395,91.814507 80.588875,93.797783 77.893715,94.765236 
	C73.604706,96.304810 68.663689,99.820404 65.458481,92.879242 
	C65.298714,92.533241 63.967525,92.728172 63.181786,92.671234 
z"/>
<path fill="#F70B98" opacity="1.000000" stroke="none" 
	d="
M65.122986,41.977386 
	C66.413460,44.668549 67.639328,47.393116 69.009621,50.043003 
	C71.045372,53.979748 73.183296,57.863659 75.604362,62.388489 
	C75.920959,64.355675 75.910934,65.704430 75.564812,66.979691 
	C73.806747,66.948624 72.263016,66.644463 70.983994,67.093788 
	C65.608574,68.982208 60.312290,71.095894 54.761078,72.909927 
	C54.306953,72.115158 54.078793,71.537567 53.884041,70.632988 
	C53.923508,69.867874 53.929573,69.429764 54.157623,68.737022 
	C54.953186,66.999474 55.526768,65.516548 56.299347,63.761688 
	C57.067089,62.020493 57.635834,60.551216 58.444481,58.867470 
	C59.159687,57.473869 59.634991,56.294735 60.365368,54.901791 
	C61.113068,53.488071 61.605698,52.288155 62.332481,50.810875 
	C63.418755,47.681473 64.270874,44.829430 65.122986,41.977386 
z"/>
<path fill="#FC018A" opacity="1.000000" stroke="none" 
	d="
M54.987038,73.127106 
	C60.312290,71.095894 65.608574,68.982208 70.983994,67.093788 
	C72.263016,66.644463 73.806747,66.948624 75.709457,67.188705 
	C76.409309,67.730026 76.628426,67.988846 76.878586,68.553490 
	C77.281456,69.571465 77.653282,70.283615 78.089630,71.322456 
	C78.452072,72.706818 78.750000,73.764496 79.047928,74.822166 
	C72.277809,76.292107 67.462105,82.985329 59.354126,82.041565 
	C57.538475,79.803429 56.153225,77.553757 54.425297,75.120392 
	C54.082623,74.936684 53.983913,74.935165 54.086586,74.696152 
	C54.455181,74.013794 54.721111,73.570450 54.987038,73.127106 
z"/>
<path fill="#F97F46" opacity="1.000000" stroke="none" 
	d="
M46.821636,87.000107 
	C45.618172,89.746880 44.414711,92.493652 42.728729,95.605148 
	C41.864437,96.018707 41.482658,96.067558 40.722866,96.063614 
	C38.151894,94.955750 35.922043,93.970177 33.774258,92.830009 
	C30.189453,90.926987 26.657148,88.925064 23.170025,86.604782 
	C23.475920,84.803795 23.714529,83.362801 23.953138,81.921814 
	C24.588831,80.167404 25.224524,78.413002 26.321230,76.452881 
	C31.301039,79.568291 35.674969,83.121132 40.416767,86.085548 
	C42.088821,87.130852 44.660633,86.736916 46.821636,87.000107 
z"/>
<path fill="#F40B6A" opacity="1.000000" stroke="none" 
	d="
M65.067177,41.590260 
	C64.270874,44.829430 63.418755,47.681473 62.033085,50.623032 
	C55.659256,46.445343 49.818977,42.178143 43.978703,37.910938 
	C49.983860,31.463745 58.251743,32.095749 64.170448,38.146610 
	C64.816803,38.807396 64.748306,40.167431 65.067177,41.590260 
z"/>
<path fill="#F11177" opacity="1.000000" stroke="none" 
	d="
M63.158646,93.062256 
	C63.967525,92.728172 65.298714,92.533241 65.458481,92.879242 
	C68.663689,99.820404 73.604706,96.304810 77.893715,94.765236 
	C80.588875,93.797783 82.919395,91.814507 85.949120,90.308899 
	C86.996368,90.940094 87.508018,91.549355 88.019661,92.158615 
	C88.481461,99.531059 84.984291,103.558846 78.068237,104.015343 
	C69.572830,104.576088 66.136436,102.671547 63.158646,93.062256 
z"/>
<path fill="#F304F0" opacity="1.000000" stroke="none" 
	d="
M88.355865,91.973969 
	C87.508018,91.549355 86.996368,90.940094 86.248589,90.144287 
	C83.846764,85.089088 81.681068,80.220451 79.281654,75.086990 
	C78.750000,73.764496 78.452072,72.706818 78.488937,71.325455 
	C86.047501,71.177391 90.070999,76.553040 94.776878,80.819916 
	C92.748604,84.476387 90.720329,88.132858 88.355865,91.973969 
z"/>
<path fill="#A403CA" opacity="1.000000" stroke="none" 
	d="
M86.920891,42.948288 
	C88.370888,40.709351 89.820885,38.470417 91.988678,36.073124 
	C96.994049,34.418571 101.053589,35.231617 104.296501,38.113823 
	C106.322296,39.914295 107.508270,42.659672 109.015511,45.345650 
	C108.408180,47.306587 107.856445,48.902916 107.062164,50.211143 
	C103.126442,47.408443 99.621994,44.510258 95.652504,42.557274 
	C93.926888,41.708267 91.245430,42.802029 88.651627,43.007580 
	C87.843735,42.983921 87.382309,42.966103 86.920891,42.948288 
z"/>
<path fill="#05CEB8" opacity="1.000000" stroke="none" 
	d="
M102.173691,81.069084 
	C101.449097,79.644203 100.724495,78.219330 100.371696,76.545021 
	C108.973854,75.535767 114.466270,70.140892 120.045876,64.893608 
	C120.642014,65.396500 121.238159,65.899399 121.656067,66.984299 
	C121.303581,69.308105 121.634331,71.324615 120.863419,72.741875 
	C118.207672,77.624229 107.923721,82.012245 102.173691,81.069084 
z"/>
<path fill="#C602DB" opacity="1.000000" stroke="none" 
	d="
M81.165695,55.008987 
	C82.068123,53.218216 82.970558,51.427452 84.387199,49.352188 
	C91.033226,52.421528 97.165039,55.775356 103.246231,59.498695 
	C102.574600,61.495213 101.953590,63.122223 101.181351,64.883957 
	C100.865379,65.260696 100.830025,65.520332 100.690002,65.808701 
	C100.455948,65.819809 99.989471,65.774918 99.862030,65.477364 
	C93.544952,61.789539 87.355324,58.399261 81.165695,55.008987 
z"/>
<path fill="#FA614F" opacity="1.000000" stroke="none" 
	d="
M29.909018,68.956154 
	C30.230961,68.168327 30.552902,67.380493 31.311222,66.396027 
	C35.340080,68.779305 38.781582,71.615761 42.577637,73.849762 
	C45.147320,75.362030 48.215660,76.026985 51.060970,77.070915 
	C50.291096,79.318039 49.521221,81.565163 48.172600,83.726624 
	C43.388588,81.089592 39.236031,78.445297 34.959507,76.019539 
	C32.115482,74.406342 30.029316,72.431221 29.909018,68.956154 
z"/>
<path fill="#E602EC" opacity="1.000000" stroke="none" 
	d="
M94.863968,80.521042 
	C90.070999,76.553040 86.047501,71.177391 78.424416,70.998764 
	C77.653282,70.283615 77.281456,69.571465 77.049858,68.224510 
	C78.838394,63.352108 81.490471,64.142876 84.700386,65.808258 
	C88.999290,68.038628 93.488754,69.901726 97.922928,71.940483 
	C97.949455,71.958443 98.010437,71.978127 97.982559,72.250626 
	C98.143120,72.822556 98.331566,73.121971 98.524826,73.589798 
	C98.529648,73.758209 98.627563,74.080627 98.566864,74.400055 
	C98.695633,74.824783 98.885101,74.930084 99.074562,75.035385 
	C99.074562,75.035385 99.056778,75.056816 98.727585,74.819000 
	C98.147957,74.667519 97.897514,74.753853 97.647064,74.840195 
	C96.748398,76.634186 95.849731,78.428185 94.863968,80.521042 
z"/>
<path fill="#F93E5C" opacity="1.000000" stroke="none" 
	d="
M56.100349,64.033615 
	C55.526768,65.516548 54.953186,66.999474 53.827065,68.658478 
	C51.489258,67.639725 49.807884,66.234238 47.897919,65.292236 
	C43.395828,63.071789 38.784779,61.072266 34.217804,58.983376 
	C35.430901,56.522202 36.643993,54.061024 38.319092,51.418869 
	C44.554184,55.503136 50.327267,59.768372 56.100349,64.033615 
z"/>
<path fill="#29D5B3" opacity="1.000000" stroke="none" 
	d="
M102.242226,81.420029 
	C107.923721,82.012245 118.207672,77.624229 120.863419,72.741875 
	C121.634331,71.324615 121.303581,69.308105 121.653503,67.281418 
	C122.878014,69.407433 123.926872,71.818321 124.715630,74.895493 
	C122.893822,76.973549 121.437187,78.528381 119.749176,79.768196 
	C115.890587,82.602249 111.918831,85.282234 107.666138,88.031937 
	C106.525826,88.313019 105.712395,88.586960 104.898964,88.860901 
	C104.036224,86.497589 103.173492,84.134277 102.242226,81.420029 
z"/>
<path fill="#F86E4B" opacity="1.000000" stroke="none" 
	d="
M29.600100,69.115982 
	C30.029316,72.431221 32.115482,74.406342 34.959507,76.019539 
	C39.236031,78.445297 43.388588,81.089592 47.875351,83.856339 
	C47.805405,84.847885 47.453964,85.624077 46.962082,86.700188 
	C44.660633,86.736916 42.088821,87.130852 40.416767,86.085548 
	C35.674969,83.121132 31.301039,79.568291 26.479225,76.127869 
	C27.214531,73.764313 28.252855,71.520065 29.600100,69.115982 
z"/>
<path fill="#02C3C1" opacity="1.000000" stroke="none" 
	d="
M120.019890,64.544769 
	C114.466270,70.140892 108.973854,75.535767 100.434395,76.197327 
	C100.125298,76.099060 99.992615,75.646164 100.022598,75.142097 
	C100.075623,74.444427 100.098663,74.250824 100.335091,73.803253 
	C106.644760,69.369057 112.741058,65.188828 118.837349,61.008591 
	C119.222870,62.071033 119.608391,63.133476 120.019890,64.544769 
z"/>
<path fill="#F59B73" opacity="1.000000" stroke="none" 
	d="
M41.100880,96.116409 
	C41.482658,96.067558 41.864437,96.018707 42.530945,95.920181 
	C42.089672,97.842575 41.363667,99.814644 40.230888,101.639053 
	C39.559105,101.693420 39.294083,101.895447 39.029060,102.097481 
	C39.029064,102.097481 39.023338,102.029831 38.618309,102.012596 
	C29.243233,102.077766 23.240334,97.378334 20.142721,87.848640 
	C21.216051,85.948471 22.289381,84.048302 23.657925,82.034973 
	C23.714529,83.362801 23.475920,84.803795 23.053223,86.880096 
	C23.701420,88.755501 24.284031,90.332146 25.414268,91.170631 
	C28.428474,93.406769 31.802471,95.160553 34.798183,97.418243 
	C37.607761,99.535660 39.527054,99.108307 41.100880,96.116409 
z"/>
<path fill="#D103E3" opacity="1.000000" stroke="none" 
	d="
M80.994125,55.333214 
	C87.355324,58.399261 93.544952,61.789539 99.664871,65.717133 
	C99.580185,66.841141 99.565201,67.427811 99.377106,68.353226 
	C99.118317,69.682617 99.032639,70.673271 98.713028,71.743088 
	C98.479103,71.822235 98.010437,71.978127 98.010437,71.978127 
	C98.010437,71.978127 97.949455,71.958443 97.907578,71.595245 
	C91.643387,67.143311 85.421066,63.054558 79.198746,58.965813 
	C79.740013,57.863022 80.281288,56.760235 80.994125,55.333214 
z"/>
<path fill="#56E8A1" opacity="1.000000" stroke="none" 
	d="
M110.887535,98.044899 
	C110.251396,97.255875 109.615257,96.466850 109.248779,95.213104 
	C115.711510,90.463043 121.904564,86.177719 128.097626,81.892395 
	C128.740189,82.978233 129.382767,84.064072 129.838806,85.790939 
	C124.531502,92.135521 119.063751,97.278450 110.887535,98.044899 
z"/>
<path fill="#6BEF9D" opacity="1.000000" stroke="none" 
	d="
M110.929810,98.392822 
	C119.063751,97.278450 124.531502,92.135521 129.875275,86.176315 
	C130.724274,88.020462 131.350296,90.120255 131.570297,92.701790 
	C126.423744,96.492950 121.683220,99.802376 116.942703,103.111801 
	C114.176399,102.714882 110.429451,103.657478 110.929810,98.392822 
z"/>
<path fill="#FA4956" opacity="1.000000" stroke="none" 
	d="
M34.067123,59.305431 
	C38.784779,61.072266 43.395828,63.071789 47.897919,65.292236 
	C49.807884,66.234238 51.489258,67.639725 53.605080,68.913101 
	C53.929573,69.429764 53.923508,69.867874 53.651608,70.792435 
	C52.893486,71.846367 52.401203,72.413857 51.551414,72.957161 
	C48.506989,71.426445 45.832844,69.896538 43.129917,68.419289 
	C39.742905,66.568169 36.332275,64.760262 32.931839,62.933697 
	C33.260040,61.831627 33.588242,60.729557 34.067123,59.305431 
z"/>
<path fill="#46E1A9" opacity="1.000000" stroke="none" 
	d="
M128.058594,81.493935 
	C121.904564,86.177719 115.711510,90.463043 109.184540,94.894493 
	C107.762123,93.062881 106.673622,91.085159 105.242043,88.984169 
	C105.712395,88.586960 106.525826,88.313019 107.786316,88.330185 
	C109.382843,88.793648 110.872177,89.516388 111.627266,89.050102 
	C117.022041,85.718750 123.049240,83.063469 126.063568,76.891312 
	C126.715569,78.292702 127.367561,79.694092 128.058594,81.493935 
z"/>
<path fill="#B805D6" opacity="1.000000" stroke="none" 
	d="
M103.296852,59.129189 
	C97.165039,55.775356 91.033226,52.421528 84.540482,49.039444 
	C84.887375,47.101540 85.595207,45.191891 86.611961,43.115265 
	C87.382309,42.966103 87.843735,42.983921 88.732162,43.342850 
	C94.434418,47.122738 99.709663,50.561504 105.127563,54.261887 
	C105.374168,54.692776 105.478127,54.862053 105.406723,55.346146 
	C104.834351,56.780888 104.437332,57.900826 103.857208,59.066753 
	C103.674095,59.112743 103.296852,59.129189 103.296852,59.129189 
z"/>
<path fill="#F95452" opacity="1.000000" stroke="none" 
	d="
M32.629288,63.063438 
	C36.332275,64.760262 39.742905,66.568169 43.129917,68.419289 
	C45.832844,69.896538 48.506989,71.426445 51.646767,73.256149 
	C52.727718,74.031273 53.355816,74.483215 53.983913,74.935165 
	C53.983913,74.935165 54.082623,74.936684 54.118504,74.970642 
	C53.678894,75.333740 53.203403,75.662872 52.213531,76.166977 
	C51.474274,76.589172 51.249393,76.836388 51.024513,77.083603 
	C51.024513,77.083603 51.025249,77.027832 51.043110,77.049377 
	C48.215660,76.026985 45.147320,75.362030 42.577637,73.849762 
	C38.781582,71.615761 35.340080,68.779305 31.436495,66.083008 
	C31.525837,65.042145 31.926285,64.117668 32.629288,63.063438 
z"/>
<path fill="#FB2D5E" opacity="1.000000" stroke="none" 
	d="
M56.299347,63.761688 
	C50.327267,59.768372 44.554184,55.503136 38.480499,51.117809 
	C38.463360,50.191395 38.746822,49.385067 39.457664,48.262489 
	C40.585537,47.940754 41.286026,47.935272 42.174946,48.216461 
	C47.643776,52.029400 52.924179,55.555672 58.204578,59.081940 
	C57.635834,60.551216 57.067089,62.020493 56.299347,63.761688 
z"/>
<path fill="#F91667" opacity="1.000000" stroke="none" 
	d="
M41.986515,47.929790 
	C41.286026,47.935272 40.585537,47.940754 39.534882,47.938526 
	C40.563248,44.704018 41.941772,41.477215 43.649502,38.080677 
	C49.818977,42.178143 55.659256,46.445343 61.798927,50.900391 
	C61.605698,52.288155 61.113068,53.488071 60.118378,54.652988 
	C55.621376,51.693012 51.675476,48.697651 47.614201,45.867878 
	C44.921543,43.991718 42.640461,43.913033 41.986515,47.929790 
z"/>
<path fill="#DB09E5" opacity="1.000000" stroke="none" 
	d="
M79.047935,59.295483 
	C85.421066,63.054558 91.643387,67.143311 97.881050,71.577286 
	C93.488754,69.901726 88.999290,68.038628 84.700386,65.808258 
	C81.490471,64.142876 78.838394,63.352108 77.018814,67.918686 
	C76.628426,67.988846 76.409309,67.730026 76.045547,67.262192 
	C75.910934,65.704430 75.920959,64.355675 75.912048,62.603149 
	C76.894455,61.341301 77.895790,60.483227 79.047935,59.295483 
z"/>
<path fill="#F0AFA3" opacity="1.000000" stroke="none" 
	d="
M19.975225,88.245239 
	C23.240334,97.378334 29.243233,102.077766 38.652103,102.015823 
	C36.439205,104.399216 26.489386,105.078186 23.487658,102.678596 
	C19.290455,99.323341 17.768021,95.657654 19.975225,88.245239 
z"/>
<path fill="#06B2C4" opacity="1.000000" stroke="none" 
	d="
M98.946960,71.663933 
	C99.032639,70.673271 99.118317,69.682617 99.619965,68.218246 
	C100.331970,67.095551 100.628014,66.446571 100.924057,65.797592 
	C100.830025,65.520332 100.865379,65.260696 101.588463,64.915817 
	C103.819572,64.190247 105.603897,63.766434 107.142151,62.903824 
	C110.441742,61.053509 113.614326,58.976738 116.838921,56.992699 
	C117.489456,58.109180 118.139992,59.225662 118.813934,60.675369 
	C112.741058,65.188828 106.644760,69.369057 99.960266,73.739578 
	C99.123894,73.980125 98.875725,74.030373 98.627563,74.080627 
	C98.627563,74.080627 98.529648,73.758209 98.708771,73.168533 
	C98.907585,72.273880 98.927277,71.968903 98.946960,71.663933 
z"/>
<path fill="#79F694" opacity="1.000000" stroke="none" 
	d="
M117.159058,103.460861 
	C121.683220,99.802376 126.423744,96.492950 131.496033,93.093796 
	C131.342422,100.297653 129.240585,104.540573 117.159058,103.460861 
z"/>
<path fill="#07A0C5" opacity="1.000000" stroke="none" 
	d="
M116.799904,56.650032 
	C113.614326,58.976738 110.441742,61.053509 107.142151,62.903824 
	C105.603897,63.766434 103.819572,64.190247 101.739685,64.781097 
	C101.953590,63.122223 102.574600,61.495213 103.246231,59.498695 
	C103.296852,59.129189 103.674095,59.112743 104.225174,59.039749 
	C109.219711,57.985168 112.499313,55.666199 113.820068,51.096336 
	C114.800339,52.833347 115.780609,54.570354 116.799904,56.650032 
z"/>
<path fill="#32DCAC" opacity="1.000000" stroke="none" 
	d="
M125.962341,76.625595 
	C123.049240,83.063469 117.022041,85.718750 111.627266,89.050102 
	C110.872177,89.516388 109.382843,88.793648 108.113213,88.323051 
	C111.918831,85.282234 115.890587,82.602249 119.749176,79.768196 
	C121.437187,78.528381 122.893822,76.973549 124.643936,75.291672 
	C125.175262,75.467674 125.518188,75.913773 125.962341,76.625595 
z"/>
<path fill="#9421BE" opacity="1.000000" stroke="none" 
	d="
M109.071106,44.981037 
	C107.508270,42.659672 106.322296,39.914295 104.296501,38.113823 
	C101.053589,35.231617 96.994049,34.418571 92.305260,35.924820 
	C98.336243,30.050159 107.525879,33.749371 109.948990,43.828213 
	C109.618721,44.617001 109.344917,44.799019 109.071106,44.981037 
z"/>
<path fill="#118BC4" opacity="1.000000" stroke="none" 
	d="
M113.808456,50.752815 
	C112.499313,55.666199 109.219711,57.985168 104.408279,58.993759 
	C104.437332,57.900826 104.834351,56.780888 105.672607,55.196976 
	C108.101295,52.138000 110.088737,49.543003 112.076187,46.948006 
	C112.649734,48.101768 113.223289,49.255531 113.808456,50.752815 
z"/>
<path fill="#1877C3" opacity="1.000000" stroke="none" 
	d="
M112.059860,46.622643 
	C110.088737,49.543003 108.101295,52.138000 105.847961,54.882164 
	C105.478127,54.862053 105.374168,54.692776 105.281738,53.996513 
	C105.963753,52.479435 106.634232,51.489342 107.304710,50.499249 
	C107.856445,48.902916 108.408180,47.306587 109.015511,45.345650 
	C109.344917,44.799019 109.618721,44.617001 110.015915,44.212688 
	C110.774040,44.759357 111.408783,45.528316 112.059860,46.622643 
z"/>
<path fill="#F0AFA3" opacity="1.000000" stroke="none" 
	d="
M39.254799,102.040321 
	C39.294083,101.895447 39.559105,101.693420 39.868866,101.651619 
	C39.913612,101.811844 39.480537,101.983162 39.254799,102.040321 
z"/>
<path fill="#FA614F" opacity="1.000000" stroke="none" 
	d="
M51.279106,76.999542 
	C51.249393,76.836388 51.474274,76.589172 51.897186,76.188812 
	C51.908047,76.328941 51.720871,76.622208 51.279106,76.999542 
z"/>
<path fill="#8C86CB" opacity="1.000000" stroke="none" 
	d="
M97.781174,75.102905 
	C97.897514,74.753853 98.147957,74.667519 98.714096,74.822449 
	C98.658295,75.164352 98.286797,75.264984 97.781174,75.102905 
z"/>
<path fill="#8C86CB" opacity="1.000000" stroke="none" 
	d="
M98.566864,74.400055 
	C98.875725,74.030373 99.123894,73.980125 99.746887,73.993546 
	C100.098663,74.250824 100.075623,74.444427 99.958588,74.914978 
	C99.864594,75.191925 99.457245,75.175697 99.265900,75.105545 
	C98.885101,74.930084 98.695633,74.824783 98.566864,74.400055 
z"/>
<path fill="#FB1F62" opacity="1.000000" stroke="none" 
	d="
M42.174946,48.216461 
	C42.640461,43.913033 44.921543,43.991718 47.614201,45.867878 
	C51.675476,48.697651 55.621376,51.693012 59.863304,54.866795 
	C59.634991,56.294735 59.159687,57.473869 58.444481,58.867470 
	C52.924179,55.555672 47.643776,52.029400 42.174946,48.216461 
z"/>
<path fill="#E75B6E" opacity="1.000000" stroke="none" 
	d="
M54.086586,74.696152 
	C53.355816,74.483215 52.727718,74.031273 52.004272,73.280334 
	C52.401203,72.413857 52.893486,71.846367 53.618202,71.119431 
	C54.078793,71.537567 54.306953,72.115158 54.761078,72.909927 
	C54.721111,73.570450 54.455181,74.013794 54.086586,74.696152 
z"/>
<path fill="#FB8E52" opacity="1.000000" stroke="none" 
	d="
M40.722866,96.063614 
	C39.527054,99.108307 37.607761,99.535660 34.798183,97.418243 
	C31.802471,95.160553 28.428474,93.406769 25.414268,91.170631 
	C24.284031,90.332146 23.701420,88.755501 22.985935,87.240089 
	C26.657148,88.925064 30.189453,90.926987 33.774258,92.830009 
	C35.922043,93.970177 38.151894,94.955750 40.722866,96.063614 
z"/>
<path fill="#B103D1" opacity="1.000000" stroke="none" 
	d="
M107.062164,50.211143 
	C106.634232,51.489342 105.963753,52.479435 105.139099,53.734901 
	C99.709663,50.561504 94.434418,47.122738 89.078629,43.348694 
	C91.245430,42.802029 93.926888,41.708267 95.652504,42.557274 
	C99.621994,44.510258 103.126442,47.408443 107.062164,50.211143 
z"/>
<path fill="#07A0C5" opacity="1.000000" stroke="none" 
	d="
M100.690002,65.808701 
	C100.628014,66.446571 100.331970,67.095551 99.793076,67.879509 
	C99.565201,67.427811 99.580185,66.841141 99.792313,66.014694 
	C99.989471,65.774918 100.455948,65.819809 100.690002,65.808701 
z"/>
<path fill="#8C86CB" opacity="1.000000" stroke="none" 
	d="
M98.713028,71.743088 
	C98.927277,71.968903 98.907585,72.273880 98.703949,73.000122 
	C98.331566,73.121971 98.143120,72.822556 97.982559,72.250626 
	C98.010437,71.978127 98.479103,71.822235 98.713028,71.743088 
z"/>
</svg>